# xmcd CD database file
#
# Track frame offsets:
#	150
#	20685
#	43075
#	62832
#	89460
#	121130
#	136540
#	152852
#	178742
#	198045
#	227655
#	248260
#	269810
#
# Disc length: 3840 seconds
#
# Revision: 0
# Processed by: cddbd v1.5PL3 Copyright (c) Steve Scherf et al.
# Submitted via: CDex 1.51
#
DISCID=aa0efe0d
DTITLE=keiko yamami - LET IT be ME
DYEAR=1999
DGENRE=Jazz
TTITLE0=I'LL CLOSE MY EYES
TTITLE1=IMAGINE
TTITLE2=ANTONIO'S SONG
TTITLE3=ON A SLOWBOAT TO CHINA
TTITLE4=LET IT BE ME
TTITLE5=IMAGINATION
TTITLE6=IN THE WEE SMALL HOURS OF THE MORNING
TTITLE7=ONLY TRUST YOUR HEART
TTITLE8=I FALL IN LOVE TOO EASILY
TTITLE9=MELODIES OF LOVE
TTITLE10=I SHOULD CARE
TTITLE11=CLOSE ENOUGH FOR LOVE
TTITLE12=TRY A LITTLE TENDERNESS
EXTD=YEAR: 1999
EXTT0=
EXTT1=
EXTT2=
EXTT3=
EXTT4=
EXTT5=
EXTT6=
EXTT7=
EXTT8=
EXTT9=
EXTT10=
EXTT11=
EXTT12=
PLAYORDER=
